<?xml version="1.0" encoding="iso-8859-1"?>
<!-- Uploaded to: SVG Repo, www.svgrepo.com, Generator: SVG Repo Mixer Tools -->
<!DOCTYPE svg PUBLIC "-//W3C//DTD SVG 1.1//EN" "http://www.w3.org/Graphics/SVG/1.1/DTD/svg11.dtd">
<svg fill="#000000" height="800px" width="800px" version="1.1" id="Capa_1" xmlns="http://www.w3.org/2000/svg" xmlns:xlink="http://www.w3.org/1999/xlink" 
	 viewBox="0 0 276.901 276.901" xml:space="preserve">
<path d="M275.922,105.676c-2.353-7.24-8.612-12.517-16.146-13.611l-71.441-10.381l-31.95-64.737
	c-3.369-6.826-10.322-11.148-17.935-11.148c-7.613,0-14.565,4.322-17.935,11.148L88.566,81.684L17.125,92.065
	c-7.533,1.095-13.793,6.371-16.146,13.611s-0.391,15.188,5.062,20.502l51.695,50.391l-12.203,71.153
	c-1.287,7.504,1.798,15.087,7.956,19.562c6.159,4.475,14.326,5.065,21.063,1.521l63.898-33.594l63.899,33.594
	c2.927,1.539,6.121,2.298,9.305,2.298c4.146,0,8.273-1.288,11.758-3.819c6.159-4.475,9.243-12.059,7.956-19.562l-12.204-71.153
	l51.696-50.39C276.312,120.864,278.274,112.916,275.922,105.676z M183.715,155.264c-4.714,4.595-6.865,11.215-5.752,17.703
	l7.131,41.575l-37.337-19.629c-2.913-1.532-6.11-2.298-9.306-2.298V70.99l18.669,37.826c2.913,5.902,8.545,9.994,15.059,10.94
	l41.743,6.065L183.715,155.264z"/>
</svg>